<?xml version="1.0" encoding="UTF-8" standalone="no"?>
<svg
   version="1.0"
   width="8000.000000pt"
   height="1544.000000pt"
   viewBox="0 0 8000.000000 1544.000000"
   preserveAspectRatio="xMidYMid meet"
   id="svg20"
   sodipodi:docname="logo.svg"
   inkscape:version="1.3 (0e150ed6c4, 2023-07-21)"
   xmlns:inkscape="http://www.inkscape.org/namespaces/inkscape"
   xmlns:sodipodi="http://sodipodi.sourceforge.net/DTD/sodipodi-0.dtd"
   xmlns="http://www.w3.org/2000/svg"
   xmlns:svg="http://www.w3.org/2000/svg">
  <defs
     id="defs20" />
  <sodipodi:namedview
     id="namedview20"
     pagecolor="#ffffff"
     bordercolor="#000000"
     borderopacity="0.25"
     inkscape:showpageshadow="2"
     inkscape:pageopacity="0.0"
     inkscape:pagecheckerboard="0"
     inkscape:deskcolor="#d1d1d1"
     inkscape:document-units="pt"
     showgrid="false"
     inkscape:zoom="0.13153125"
     inkscape:cx="5333.3333"
     inkscape:cy="1030.1734"
     inkscape:window-width="1920"
     inkscape:window-height="1009"
     inkscape:window-x="-8"
     inkscape:window-y="-8"
     inkscape:window-maximized="1"
     inkscape:current-layer="svg20" />
  <g
     transform="translate(0.000000,1544.000000) scale(0.100000,-0.100000)"
     fill="#000000"
     stroke="none"
     id="g20"
     style="fill:#102036;fill-opacity:1">
    <path
       d="M70739 12543 c-85 -87 -308 -315 -494 -508 -186 -192 -411 -424 -499 -515 -89 -91 -235 -242 -326 -335 -90 -94 -234 -242 -320 -330 -85 -88 -225 -232 -310 -320 -85 -88 -234 -241 -330 -340 -96 -99 -310 -319 -475 -490 -337 -349 -586 -604 -817 -840 l-158 -161 0 -633 0 -633 38 28 c20 16 159 127 307 249 1092 891 2137 1637 3110 2220 927 556 1773 969 2630 1286 l210 78 3 700 2 701 -1208 0 -1208 0 -155 -157z m611 -962 l0 -809 -22 -14 c-13 -8 -80 -45 -150 -82 l-128 -68 0 891 0 891 150 0 150 0 0 -809z m570 139 l0 -671 -146 -69 c-81 -39 -148 -70 -150 -70 -2 0 -4 333 -4 740 l0 740 150 0 150 0 0 -670z m528 125 l-3 -545 -137 -64 -138 -64 0 609 0 609 140 0 140 0 -2 -545z m552 111 l0 -433 -132 -51 c-73 -28 -141 -53 -150 -57 -17 -7 -18 20 -18 484 l0 491 150 0 150 0 0 -434z m-2260 -583 l0 -878 -83 -47 c-45 -26 -100 -58 -122 -72 l-40 -24 2 831 2 831 118 118 c65 65 119 118 120 118 2 0 3 -395 3 -877z m-450 -365 l0 -783 -98 -61 c-53 -34 -99 -60 -101 -58 -2 2 -4 334 -4 739 l0 736 44 47 c89 95 153 162 156 162 2 0 3 -352 3 -782z m-390 -320 l0 -713 -98 -63 -97 -62 -3 671 -2 671 97 103 c54 57 99 104 101 104 1 1 2 -320 2 -711z m-380 -322 l0 -644 -82 -56 -83 -57 -3 618 -2 617 82 83 c45 46 84 83 85 83 2 0 3 -290 3 -644z m-330 -285 l0 -589 -85 -61 -85 -61 0 567 0 568 82 82 c46 46 84 83 85 83 2 0 3 -265 3 -589z m-300 -264 l0 -543 -77 -57 -78 -58 -3 523 -2 522 77 78 c43 43 79 78 80 78 2 0 3 -244 3 -543z m-304 -763 c-4 -11 -122 -104 -131 -104 -3 0 -5 218 -5 485 l0 485 68 71 67 71 3 -498 c1 -275 0 -504 -2 -510z m-266 257 l0 -469 -69 -56 c-39 -31 -72 -56 -75 -56 -4 0 -6 204 -6 452 l0 453 72 72 c40 40 74 73 75 73 2 0 3 -211 3 -469z m-271 -243 l0 -443 -65 -53 -64 -53 0 428 0 428 63 67 c34 37 63 67 65 67 1 1 2 -198 1 -441z m-239 -222 l0 -414 -62 -52 -63 -53 -3 404 -2 403 62 63 c34 35 64 63 65 63 2 0 3 -186 3 -414z m-270 -250 l0 -394 -57 -47 -58 -47 -3 383 -2 383 57 58 c32 32 59 58 60 58 2 0 3 -177 3 -394z m-327 -673 l-58 -53 -3 367 -2 367 57 58 58 59 3 -373 3 -373 -58 -52z"
       id="path1"
       style="fill:#102036;fill-opacity:1" />
    <path
       d="M73470 12024 c0 -638 1 -675 18 -670 741 217 1382 336 2117 391 110 8 253 15 317 15 64 0 123 3 132 6 14 5 16 56 16 470 l0 464 -1300 0 -1300 0 0 -676z m550 88 l0 -278 -140 -40 -140 -41 0 319 0 318 140 0 140 0 0 -278z m568 61 l-3 -217 -135 -28 c-74 -15 -138 -27 -142 -28 -5 0 -8 110 -8 245 l0 245 145 0 145 0 -2 -217z m572 43 l0 -174 -27 -6 c-16 -3 -71 -10 -123 -16 -52 -6 -107 -13 -122 -16 l-28 -6 0 196 0 196 150 0 150 0 0 -174z m560 14 l0 -160 -84 0 c-45 0 -111 -3 -145 -6 l-61 -7 0 167 0 166 145 0 145 0 0 -160z"
       id="path2"
       style="fill:#102036;fill-opacity:1" />
    <path
       d="M16425 11535 c-252 -33 -447 -98 -640 -213 -80 -47 -135 -91 -222 -176 l-72 -69 -58 26 c-151 68 -351 122 -568 153 -173 26 -544 26 -720 0 -590 -84 -1030 -391 -1278 -891 -157 -317 -235 -650 -277 -1188 -23 -296 -97 -365 -413 -384 -105 -6 -109 -7 -119 -32 -6 -16 -6 -42 -1 -66 l8 -40 143 -12 c211 -17 291 -45 337 -115 56 -85 56 -75 53 -1231 l-3 -1062 -23 -68 c-51 -151 -171 -217 -398 -217 -41 0 -75 -5 -82 -12 -16 -16 -15 -73 2 -87 11 -9 122 -9 462 0 327 8 581 8 933 1 266 -6 489 -8 497 -5 18 7 19 77 2 90 -7 6 -89 13 -183 16 -362 12 -475 67 -532 262 -16 55 -18 148 -21 1239 l-3 1179 568 -6 c1015 -11 1079 -26 1112 -253 5 -41 10 -469 10 -1065 1 -1060 -1 -1104 -47 -1195 -56 -110 -179 -164 -378 -164 -41 0 -75 -5 -82 -12 -16 -16 -15 -73 2 -87 11 -9 122 -9 462 0 327 8 581 8 933 1 266 -6 489 -8 497 -5 9 3 14 21 14 49 0 53 8 51 -205 58 -354 11 -470 70 -521 265 -17 61 -18 158 -21 1225 l-4 1158 103 -6 c224 -15 404 -39 647 -87 l154 -31 18 24 c41 52 56 245 27 333 l-13 40 -65 -1 c-36 -1 -132 -8 -215 -17 -138 -15 -343 -30 -569 -41 l-89 -4 6 472 c7 598 30 869 103 1194 107 482 317 797 584 880 85 26 258 23 333 -7 99 -39 222 -172 297 -321 38 -75 97 -156 141 -194 62 -53 125 -71 244 -71 87 0 107 4 156 26 68 32 131 88 164 144 30 51 46 152 34 223 -29 189 -259 332 -606 377 -136 18 -484 18 -618 0z m-2014 -430 c252 -44 493 -182 693 -397 64 -68 86 -98 82 -113 -2 -11 -23 -73 -45 -139 -112 -325 -185 -756 -206 -1221 -11 -251 -45 -331 -159 -374 -107 -40 -177 -44 -865 -48 l-663 -5 5 429 c6 427 15 571 52 785 50 289 129 509 247 690 209 320 504 455 859 393z"
       id="path3"
       style="fill:#102036;fill-opacity:1" />
    <path
       d="M75445 11479 c-1592 -97 -3450 -808 -5485 -2098 -1419 -899 -2819 -1988 -4720 -3671 -107 -95 -214 -190 -237 -212 l-43 -38 41 -173 c98 -421 264 -1059 416 -1599 l66 -236 81 -6 c45 -3 190 -10 324 -16 1214 -54 3409 -342 5667 -741 799 -141 1822 -341 2455 -478 151 -33 278 -57 281 -53 15 16 175 1806 228 2547 12 154 32 476 46 715 77 1318 137 1999 236 2695 141 993 371 1893 664 2601 78 187 238 518 318 657 31 54 57 103 57 108 0 11 -206 10 -395 -2z"
       id="path4"
       style="fill:#102036;fill-opacity:1" />
    <path
       d="M76013 11249 c-260 -459 -490 -1025 -668 -1639 -254 -879 -433 -1931 -534 -3155 -32 -381 -34 -421 -24 -410 5 6 72 145 148 310 684 1483 1001 2085 1415 2681 122 175 115 163 145 286 115 481 46 1065 -196 1636 -47 111 -171 355 -198 391 l-18 24 -70 -124z"
       id="path5"
       style="fill:#102036;fill-opacity:1" />
    <path
       d="M1514 10743 c-2 -7 -6 -20 -9 -29 -11 -33 13 -52 72 -59 263 -29 430 -140 595 -395 l56 -85 -34 -1635 c-34 -1667 -42 -1898 -70 -2030 -70 -331 -278 -536 -566 -557 -46 -3 -89 -10 -95 -16 -17 -13 -16 -72 1 -86 11 -9 107 -9 410 -1 294 9 493 9 772 0 206 -6 384 -8 395 -5 15 5 19 16 19 50 0 51 2 50 -115 59 -150 12 -262 61 -360 161 -170 169 -224 383 -211 835 3 129 20 811 37 1515 16 703 31 1280 32 1282 2 2 435 -850 1295 -2552 150 -297 359 -709 463 -915 105 -206 199 -383 211 -392 31 -27 104 -24 122 5 7 12 384 889 837 1949 453 1059 826 1925 830 1923 3 -2 7 -35 8 -72 1 -37 29 -637 61 -1333 33 -696 67 -1411 75 -1590 8 -179 17 -352 20 -385 7 -74 -10 -195 -36 -255 -53 -121 -159 -166 -419 -178 l-135 -7 0 -50 0 -50 130 1 c165 2 1516 2 1695 0 l135 -1 0 50 0 50 -135 6 c-328 15 -413 77 -454 329 -21 130 -16 47 -117 2060 -55 1085 -88 1821 -84 1860 24 231 142 365 375 424 36 9 125 22 198 28 144 13 150 17 137 76 l-6 28 -588 -2 c-647 -2 -620 1 -675 -65 -46 -55 91 255 -1271 -2866 -198 -453 -362 -820 -366 -815 -4 4 -368 711 -809 1572 -441 861 -838 1635 -882 1720 -155 298 -218 395 -279 430 l-41 23 -610 1 c-485 1 -611 -1 -614 -11z"
       id="path6"
       style="fill:#102036;fill-opacity:1" />
    <path
       d="M26860 10710 c0 -6 -51 -10 -134 -10 -79 0 -137 -4 -141 -10 -9 -14 -797 -14 -811 0 -7 7 -94 9 -240 8 l-229 -3 -3 -38 c-6 -70 10 -77 164 -77 78 0 135 -4 139 -10 3 -5 26 -10 50 -10 24 0 47 -4 50 -10 3 -5 15 -10 26 -10 28 0 57 -18 112 -70 54 -51 77 -90 77 -131 0 -15 5 -31 10 -34 6 -3 10 -30 10 -60 0 -30 5 -57 10 -60 7 -4 10 -663 10 -1945 0 -1282 -3 -1941 -10 -1945 -5 -3 -10 -35 -10 -70 0 -35 -4 -67 -10 -70 -5 -3 -10 -14 -10 -24 0 -73 -157 -211 -241 -211 -15 0 -31 -4 -34 -10 -3 -5 -39 -10 -80 -10 -41 0 -77 -4 -80 -10 -3 -5 -43 -10 -88 -10 -89 -1 -117 -12 -117 -50 0 -50 -17 -49 767 -50 477 0 734 -3 738 -10 4 -6 68 -10 160 -10 92 0 156 -4 160 -10 8 -14 462 -14 470 0 3 6 39 10 80 10 41 0 77 5 80 10 3 6 30 10 60 10 30 0 57 5 60 10 3 6 21 10 40 10 19 0 37 5 40 10 3 6 17 10 30 10 13 0 27 5 30 10 3 6 19 10 34 10 16 0 63 18 106 40 43 22 83 40 90 40 16 0 73 29 80 41 4 5 25 18 49 29 23 10 49 26 56 35 7 8 18 15 24 15 7 0 25 14 41 30 16 17 34 30 40 30 13 0 265 252 265 266 0 6 14 23 30 39 17 16 30 34 30 41 0 6 6 17 14 23 19 16 126 231 126 253 0 9 5 20 10 23 6 3 10 17 10 30 0 13 5 27 10 30 6 3 10 21 10 40 0 19 5 37 10 40 6 3 10 26 10 50 0 24 5 47 10 50 6 3 10 51 10 110 0 73 4 105 13 109 10 5 10 7 0 12 -9 4 -13 36 -13 109 0 59 -4 107 -10 110 -5 3 -10 30 -10 60 0 30 -4 57 -10 60 -5 3 -10 17 -10 30 0 13 -4 27 -10 30 -5 3 -10 15 -10 25 0 11 -9 35 -20 55 -11 20 -20 42 -20 49 0 17 -28 74 -41 81 -5 4 -18 25 -28 48 -11 23 -31 53 -45 66 -14 14 -26 29 -26 35 0 15 -252 266 -266 266 -6 0 -19 9 -29 20 -10 11 -24 20 -30 20 -7 0 -18 7 -25 15 -7 9 -32 25 -55 35 -23 10 -48 26 -55 35 -7 8 -20 15 -30 15 -10 0 -44 14 -75 30 -31 17 -65 30 -75 30 -11 0 -22 5 -25 10 -3 6 -17 10 -30 10 -13 0 -27 5 -30 10 -3 6 -17 10 -30 10 -13 0 -27 5 -30 10 -3 6 -21 10 -40 10 -19 0 -37 5 -40 10 -3 6 -26 10 -50 10 -24 0 -47 5 -50 10 -3 6 -35 10 -71 10 -35 0 -64 3 -64 8 0 4 63 38 139 75 77 37 145 74 151 82 7 8 18 15 25 15 6 0 20 9 30 20 10 11 23 20 30 20 6 0 29 18 50 40 21 22 44 40 50 40 13 0 145 132 145 146 0 5 16 26 36 45 19 18 48 62 65 95 16 34 36 67 44 74 8 7 15 21 15 31 0 10 9 34 20 54 11 20 20 44 20 55 0 10 5 22 10 25 6 3 10 17 10 30 0 13 5 27 10 30 6 3 10 30 10 60 0 30 5 57 10 60 6 4 10 60 10 135 0 75 -4 131 -10 135 -5 3 -10 30 -10 60 0 30 -4 57 -10 60 -5 3 -10 19 -10 35 0 16 -9 45 -20 65 -11 20 -20 42 -20 49 0 19 -28 72 -45 86 -8 7 -15 18 -15 25 0 6 -9 20 -20 30 -11 10 -20 23 -20 29 0 17 -211 220 -245 236 -16 8 -38 20 -47 28 -24 20 -149 82 -165 82 -7 0 -28 9 -48 20 -20 11 -49 20 -65 20 -16 0 -32 5 -35 10 -3 6 -21 10 -40 10 -19 0 -37 5 -40 10 -3 6 -26 10 -50 10 -24 0 -47 5 -50 10 -3 6 -40 10 -81 10 -43 0 -74 4 -74 10 0 6 -110 10 -310 10 -200 0 -310 -4 -310 -10z m265 -140 c3 -5 44 -10 90 -10 46 0 87 -4 90 -10 3 -5 21 -10 40 -10 19 0 37 -4 40 -10 3 -5 17 -10 30 -10 13 0 27 -4 30 -10 3 -5 14 -10 24 -10 22 0 116 -47 131 -65 7 -8 17 -15 23 -15 15 0 137 -121 137 -136 0 -6 9 -19 20 -29 11 -10 20 -24 20 -30 0 -7 7 -18 15 -25 17 -14 45 -67 45 -86 0 -7 9 -29 20 -49 11 -20 20 -44 20 -55 0 -10 5 -22 10 -25 6 -3 10 -26 10 -50 0 -24 5 -47 10 -50 6 -3 10 -39 10 -80 0 -41 5 -77 10 -80 6 -4 10 -57 10 -125 0 -68 -4 -121 -10 -125 -5 -3 -10 -35 -10 -70 0 -35 -4 -67 -10 -70 -5 -3 -10 -26 -10 -50 0 -24 -4 -47 -10 -50 -5 -3 -10 -15 -10 -25 0 -11 -9 -35 -20 -55 -11 -20 -20 -41 -20 -49 0 -15 -42 -100 -62 -124 -8 -9 -20 -30 -28 -47 -16 -34 -169 -195 -186 -195 -6 0 -19 -9 -29 -20 -10 -11 -24 -20 -30 -20 -7 0 -18 -7 -25 -15 -15 -18 -109 -65 -131 -65 -10 0 -21 -4 -24 -10 -3 -5 -17 -10 -30 -10 -13 0 -27 -4 -30 -10 -3 -5 -26 -10 -50 -10 -24 0 -47 -4 -50 -10 -3 -6 -48 -10 -100 -10 -52 0 -97 -4 -100 -10 -3 -5 -42 -10 -85 -10 -43 0 -82 5 -85 10 -3 6 -52 10 -111 10 l-104 0 0 849 c0 556 3 852 10 856 6 3 10 21 10 40 0 19 5 37 10 40 6 3 10 14 10 24 0 59 111 171 169 171 11 0 23 5 26 10 3 6 35 10 70 10 35 0 67 5 70 10 3 6 37 10 75 10 38 0 72 -4 75 -10z m0 -2220 c4 -6 55 -10 120 -10 65 0 116 -4 120 -10 3 -5 26 -10 50 -10 24 0 47 -4 50 -10 3 -5 21 -10 40 -10 19 0 37 -4 40 -10 3 -5 17 -10 30 -10 13 0 27 -4 30 -10 3 -5 14 -10 23 -10 27 0 237 -108 262 -135 13 -14 28 -25 34 -25 14 0 176 -161 176 -175 0 -6 14 -24 30 -40 17 -16 30 -34 30 -41 0 -6 6 -17 14 -24 19 -15 106 -190 106 -212 0 -9 5 -20 10 -23 6 -3 10 -17 10 -30 0 -13 5 -27 10 -30 6 -3 10 -17 10 -30 0 -13 5 -27 10 -30 6 -3 10 -26 10 -50 0 -24 5 -47 10 -50 6 -3 10 -30 10 -60 0 -30 5 -57 10 -60 6 -4 10 -87 10 -215 0 -128 -4 -211 -10 -215 -5 -3 -10 -30 -10 -60 0 -30 -4 -57 -10 -60 -5 -3 -10 -21 -10 -40 0 -19 -4 -37 -10 -40 -5 -3 -10 -19 -10 -35 0 -16 -9 -45 -20 -65 -11 -20 -20 -41 -20 -48 0 -19 -49 -113 -65 -127 -8 -7 -15 -18 -15 -24 0 -7 -13 -25 -30 -41 -16 -16 -30 -33 -30 -39 0 -14 -61 -76 -75 -76 -6 0 -27 -16 -46 -36 -18 -19 -52 -44 -75 -54 -22 -11 -47 -26 -54 -35 -7 -8 -21 -15 -31 -15 -10 0 -34 -9 -54 -20 -20 -11 -49 -20 -65 -20 -16 0 -32 -4 -35 -10 -3 -5 -21 -10 -40 -10 -19 0 -37 -4 -40 -10 -3 -5 -30 -10 -60 -10 -30 0 -57 -4 -60 -10 -4 -6 -93 -10 -235 -10 -142 0 -231 4 -235 10 -3 6 -30 10 -60 10 -30 0 -57 5 -60 10 -3 6 -17 10 -30 10 -13 0 -27 5 -30 10 -3 6 -14 10 -24 10 -21 0 -78 27 -87 41 -3 6 -17 14 -30 19 -13 5 -28 20 -33 33 -5 12 -16 29 -25 36 -9 7 -16 24 -16 37 0 12 -4 26 -10 29 -5 3 -10 17 -10 30 0 13 -4 27 -10 30 -7 4 -10 367 -10 1056 l0 1049 144 0 c86 0 147 4 151 10 4 6 53 10 115 10 62 0 111 -4 115 -10z"
       id="path7"
       style="fill:#102036;fill-opacity:1" />
    <path
       d="M39617 10682 c-21 -23 -21 -31 -1 -70 15 -32 16 -32 89 -32 41 0 77 -4 80 -10 3 -5 21 -10 40 -10 19 0 37 -4 40 -10 3 -5 14 -10 23 -10 27 0 156 -68 182 -95 13 -14 28 -25 35 -25 14 0 135 -122 135 -137 0 -6 7 -16 15 -23 39 -33 45 -67 45 -276 0 -124 -4 -205 -10 -209 -6 -4 -10 -172 -10 -470 0 -298 -4 -466 -10 -470 -6 -4 -10 -185 -10 -510 0 -325 -4 -506 -10 -510 -6 -4 -10 -181 -10 -499 0 -359 -3 -495 -12 -504 -8 -8 -8 -15 2 -27 10 -12 10 -19 2 -27 -8 -8 -12 -57 -12 -144 0 -78 -4 -135 -10 -139 -5 -3 -10 -26 -10 -50 0 -24 -4 -47 -10 -50 -5 -3 -10 -19 -10 -35 0 -16 -9 -45 -20 -65 -11 -20 -20 -42 -20 -49 0 -19 -28 -72 -45 -86 -8 -7 -15 -18 -15 -24 0 -6 -26 -38 -58 -69 -63 -62 -177 -127 -223 -127 -15 0 -31 -4 -34 -10 -3 -5 -34 -10 -69 -10 -34 0 -66 -4 -72 -9 -5 -5 -20 -11 -34 -13 -22 -3 -25 -8 -25 -48 l0 -45 775 0 775 0 0 45 c0 44 -1 45 -35 48 -19 2 -39 8 -44 13 -6 5 -43 9 -82 9 -40 0 -76 5 -79 10 -3 6 -17 10 -30 10 -13 0 -27 5 -30 10 -3 6 -14 10 -24 10 -23 0 -75 26 -91 45 -7 8 -18 15 -24 15 -18 0 -91 81 -109 121 -9 20 -23 42 -32 49 -8 7 -15 23 -15 36 0 12 -4 26 -10 29 -5 3 -10 17 -10 30 0 13 -4 27 -10 30 -5 3 -10 21 -10 40 0 19 -4 37 -10 40 -5 3 -10 30 -10 60 0 30 -4 57 -10 60 -6 4 -10 100 -10 255 0 155 4 251 10 255 6 4 10 182 10 500 0 318 4 496 10 500 6 4 10 185 10 510 0 325 4 506 10 510 6 4 10 142 10 381 0 206 3 374 8 374 8 -1 292 -569 292 -585 0 -6 95 -199 210 -430 116 -231 210 -424 210 -430 0 -6 95 -199 210 -430 116 -231 210 -424 210 -430 0 -6 95 -199 210 -430 116 -231 210 -424 210 -430 0 -13 383 -780 400 -800 20 -24 83 -19 109 9 25 26 71 112 71 131 0 7 18 47 40 90 22 43 40 83 40 90 0 7 14 39 30 70 17 31 30 63 30 70 0 7 14 39 30 70 17 31 30 63 30 70 0 7 14 39 30 70 17 31 30 63 30 70 0 7 14 39 30 70 17 31 30 63 30 70 0 7 14 39 30 70 17 31 30 63 30 70 0 7 14 39 30 70 17 31 30 63 30 70 0 7 14 39 30 70 17 31 30 63 30 70 0 7 14 39 30 70 17 31 30 63 30 70 0 7 14 39 30 70 17 31 30 63 30 70 0 7 14 39 30 70 17 31 30 63 30 70 0 7 14 39 30 70 17 31 30 63 30 70 0 7 14 39 30 70 17 31 30 63 30 70 0 7 14 39 30 70 17 31 30 63 30 70 0 7 18 47 40 90 22 43 40 83 40 90 0 7 14 39 30 70 17 31 30 63 30 70 0 7 14 39 30 70 17 31 30 63 30 70 0 7 14 39 30 70 17 31 30 63 30 70 0 7 14 39 30 70 17 31 30 63 30 70 0 7 14 39 30 70 17 31 30 63 30 70 0 7 14 39 30 70 17 31 30 63 30 70 0 7 14 39 30 70 17 31 30 63 30 70 0 7 14 39 30 70 17 31 30 63 30 70 0 7 14 39 30 70 17 31 30 63 30 70 0 7 14 39 30 70 17 31 30 63 30 70 0 7 14 39 30 70 17 31 30 62 30 68 0 17 44 107 53 107 4 0 7 -11 7 -24 0 -14 5 -28 10 -31 6 -4 10 -92 10 -230 0 -138 4 -226 10 -230 6 -4 10 -92 10 -230 0 -138 4 -226 10 -230 6 -4 10 -92 10 -230 0 -138 4 -226 10 -230 6 -4 10 -92 10 -230 0 -138 4 -226 10 -230 6 -4 10 -92 10 -230 0 -138 4 -226 10 -230 6 -4 10 -92 10 -230 0 -138 4 -226 10 -230 6 -4 10 -92 10 -230 0 -138 4 -226 10 -230 6 -4 10 -73 10 -175 0 -102 -4 -171 -10 -175 -5 -3 -10 -18 -10 -33 0 -32 -41 -122 -56 -122 -5 0 -23 -13 -39 -30 -16 -16 -39 -30 -51 -30 -13 0 -26 -4 -29 -10 -3 -5 -21 -10 -40 -10 -19 0 -37 -4 -40 -10 -3 -5 -35 -10 -70 -10 -35 0 -67 -4 -70 -10 -3 -5 -44 -10 -91 -10 -71 0 -86 -3 -91 -17 -4 -10 -11 -21 -17 -25 -8 -6 -8 -10 0 -15 6 -5 13 -16 17 -26 6 -16 58 -17 949 -15 l943 3 0 45 0 45 -85 3 c-47 2 -89 7 -94 12 -6 6 -47 10 -92 10 -46 0 -86 5 -89 10 -3 6 -19 10 -34 10 -49 0 -161 66 -161 95 0 7 -9 20 -20 30 -11 10 -20 28 -20 41 0 13 -4 26 -10 29 -5 3 -10 21 -10 40 0 19 -4 37 -10 40 -5 3 -10 30 -10 60 0 30 -4 57 -10 60 -6 4 -10 72 -10 170 0 98 -4 166 -10 170 -6 4 -10 85 -10 210 0 125 -4 206 -10 210 -6 4 -10 85 -10 210 0 125 -4 206 -10 210 -6 4 -10 85 -10 210 0 125 -4 206 -10 210 -6 4 -10 85 -10 210 0 125 -4 206 -10 210 -6 4 -10 85 -10 210 0 125 -4 206 -10 210 -6 4 -10 85 -10 210 0 125 -4 206 -10 210 -6 4 -10 85 -10 210 0 125 -4 206 -10 210 -6 4 -10 84 -10 209 0 144 -3 205 -12 214 -9 9 -9 15 0 24 7 7 12 44 12 94 0 46 5 86 10 89 6 3 10 19 10 34 0 41 44 121 93 169 50 49 167 112 208 112 15 0 31 5 34 10 3 6 26 10 50 10 24 0 47 5 50 10 4 6 55 10 119 10 132 0 150 9 144 77 l-3 38 -199 3 c-126 1 -203 -1 -210 -8 -13 -13 -443 -14 -451 0 -3 6 -51 10 -109 10 -89 0 -109 -3 -152 -25 -28 -14 -63 -38 -78 -54 -28 -29 -116 -194 -116 -218 0 -7 -9 -28 -20 -48 -11 -20 -20 -41 -20 -49 0 -7 -22 -57 -50 -111 -27 -54 -50 -104 -50 -111 0 -6 -13 -38 -30 -69 -16 -31 -30 -63 -30 -70 0 -7 -13 -39 -30 -70 -16 -31 -30 -63 -30 -70 0 -7 -18 -47 -40 -90 -22 -43 -40 -83 -40 -90 0 -7 -13 -39 -30 -70 -16 -31 -30 -63 -30 -70 0 -7 -18 -47 -40 -90 -22 -43 -40 -83 -40 -90 0 -7 -13 -39 -30 -70 -16 -31 -30 -63 -30 -70 0 -7 -18 -47 -40 -90 -22 -43 -40 -83 -40 -90 0 -7 -13 -39 -30 -70 -16 -31 -30 -63 -30 -70 0 -7 -18 -47 -40 -90 -22 -43 -40 -83 -40 -90 0 -7 -13 -39 -30 -70 -16 -31 -30 -63 -30 -70 0 -7 -18 -47 -40 -90 -22 -43 -40 -83 -40 -90 0 -7 -13 -39 -30 -70 -16 -31 -30 -63 -30 -70 0 -7 -18 -47 -40 -90 -22 -43 -40 -83 -40 -90 0 -7 -13 -39 -30 -70 -16 -31 -30 -63 -30 -70 0 -7 -18 -47 -40 -90 -22 -43 -40 -83 -40 -90 0 -7 -13 -39 -30 -70 -16 -31 -30 -63 -30 -70 0 -7 -18 -47 -40 -90 -22 -43 -40 -83 -40 -90 0 -7 -13 -39 -30 -70 -16 -31 -30 -63 -30 -70 0 -7 -18 -47 -40 -90 -22 -43 -40 -83 -40 -90 0 -7 -13 -39 -30 -70 -16 -31 -30 -63 -30 -70 0 -7 -13 -39 -30 -70 -16 -31 -30 -66 -30 -76 0 -10 -4 -19 -10 -19 -5 0 -10 8 -10 18 0 9 -121 260 -270 557 -148 297 -270 544 -270 550 0 6 -144 298 -320 650 -176 352 -320 644 -320 650 0 17 -651 1314 -666 1326 -8 6 -14 17 -14 24 0 6 -9 20 -20 30 -11 10 -20 23 -20 30 0 18 -43 54 -96 81 -43 22 -60 24 -180 24 -78 0 -135 -4 -139 -10 -4 -6 -87 -10 -215 -10 -128 0 -211 4 -215 10 -4 6 -76 10 -184 10 -160 0 -180 -2 -194 -18z"
       id="path8"
       style="fill:#102036;fill-opacity:1" />
    <path
       d="M53885 10510 c-3 -5 -21 -10 -40 -10 -19 0 -37 -4 -40 -10 -3 -5 -16 -10 -29 -10 -13 0 -31 -9 -41 -20 -10 -11 -24 -20 -32 -20 -7 0 -16 -8 -20 -17 -3 -10 -17 -30 -30 -44 -14 -15 -35 -48 -49 -75 -21 -42 -24 -60 -24 -164 0 -112 1 -118 34 -184 35 -69 90 -136 111 -136 7 0 20 -9 30 -20 10 -11 28 -20 41 -20 13 0 26 -4 29 -10 3 -5 30 -10 60 -10 30 0 57 -4 60 -10 3 -5 19 -10 35 -10 16 0 32 5 35 10 3 6 26 10 50 10 24 0 47 5 50 10 3 6 16 10 29 10 13 0 31 9 41 20 10 11 23 20 30 20 14 0 65 52 65 66 0 6 9 19 20 29 11 10 20 28 20 41 0 13 5 26 10 29 6 3 10 21 10 40 0 19 5 37 10 40 6 3 10 37 10 75 0 38 -4 72 -10 75 -5 3 -10 19 -10 34 0 67 -126 231 -177 231 -12 0 -25 5 -28 10 -3 6 -17 10 -30 10 -13 0 -27 5 -30 10 -3 6 -46 10 -95 10 -49 0 -92 -4 -95 -10z"
       id="path9"
       style="fill:#102036;fill-opacity:1" />
    <path
       d="M64730 9847 l0 -224 38 -14 c20 -8 277 -100 569 -204 l533 -190 2 -1342 3 -1343 330 286 c182 158 403 348 492 423 l163 136 0 725 0 725 403 403 c221 222 498 502 615 623 l214 219 -1681 0 -1681 0 0 -223z"
       id="path10"
       style="fill:#102036;fill-opacity:1" />
    <path
       d="M21822 9443 c-12 -10 -35 -54 -51 -98 -113 -297 -374 -488 -737 -539 -60 -9 -122 -17 -139 -18 -41 -4 -61 -45 -45 -93 13 -39 19 -42 130 -48 78 -5 145 -26 193 -61 32 -24 72 -100 88 -171 8 -35 14 -364 18 -1100 l6 -1050 28 -82 c64 -190 190 -305 423 -382 120 -40 256 -55 418 -48 254 12 454 82 696 242 98 65 258 195 320 259 33 35 34 38 20 64 -24 42 -51 39 -133 -18 -94 -64 -224 -125 -324 -152 -116 -31 -340 -32 -438 -1 -139 45 -234 117 -288 220 -75 145 -71 69 -74 1215 l-4 1027 83 -5 c315 -20 591 -54 817 -100 115 -23 125 -24 142 -8 60 54 72 291 20 373 -8 12 -52 11 -313 -12 -402 -36 -555 -47 -660 -47 l-88 0 0 315 c0 300 -1 315 -19 325 -29 15 -66 12 -89 -7z"
       id="path11"
       style="fill:#102036;fill-opacity:1" />
    <path
       d="M9840 8980 c-242 -16 -487 -79 -707 -181 -371 -171 -678 -497 -802 -852 -103 -295 -113 -685 -25 -1024 132 -509 494 -918 964 -1087 347 -125 777 -126 1154 -2 124 41 310 127 400 184 164 105 354 291 459 449 113 169 183 337 229 547 20 89 22 131 22 346 0 218 -2 257 -22 350 -111 511 -393 893 -822 1114 -234 121 -538 177 -850 156z m65 -186 c80 -21 188 -72 266 -124 113 -76 249 -225 321 -350 53 -92 65 -117 102 -203 119 -278 170 -534 182 -907 23 -679 -143 -1120 -471 -1257 -160 -67 -397 -53 -570 35 -302 152 -537 504 -654 977 -106 432 -106 994 0 1342 24 76 87 207 126 262 84 115 223 206 358 236 85 18 252 13 340 -11z"
       id="path12"
       style="fill:#102036;fill-opacity:1" />
    <path
       d="M18601 8970 c-268 -28 -567 -130 -791 -269 -375 -233 -651 -590 -776 -1006 -56 -184 -69 -289 -69 -570 0 -245 2 -267 28 -387 30 -141 63 -240 114 -343 206 -412 574 -645 1018 -645 116 0 267 21 369 51 201 59 488 240 708 448 l68 63 0 -45 c0 -63 35 -261 58 -327 45 -128 92 -190 145 -190 29 0 218 88 865 401 242 117 249 123 197 174 -29 30 -31 30 -97 4 -134 -53 -279 -84 -339 -73 -79 16 -139 73 -164 157 -31 109 -35 247 -35 1393 l0 1151 -25 11 c-39 18 -48 15 -90 -29 -43 -44 -135 -112 -200 -148 l-40 -22 -79 45 c-174 99 -388 154 -631 161 -82 2 -188 0 -234 -5z m134 -175 c183 -38 361 -177 443 -345 81 -164 76 -97 80 -1097 l3 -892 -82 -61 c-242 -179 -494 -280 -702 -280 -80 0 -219 31 -282 63 -209 105 -357 307 -441 602 -95 331 -96 832 -3 1194 114 445 364 748 669 815 86 19 228 19 315 1z"
       id="path13"
       style="fill:#102036;fill-opacity:1" />
    <path
       d="M31365 8910 c-3 -5 -26 -10 -50 -10 -24 0 -47 -4 -50 -10 -3 -5 -26 -10 -50 -10 -24 0 -47 -4 -50 -10 -3 -5 -17 -10 -30 -10 -13 0 -27 -4 -30 -10 -3 -5 -17 -10 -30 -10 -13 0 -27 -4 -30 -10 -3 -5 -15 -10 -25 -10 -11 0 -35 -9 -55 -20 -20 -11 -41 -20 -48 -20 -16 0 -182 -83 -205 -102 -9 -8 -33 -22 -53 -31 -20 -9 -42 -23 -49 -32 -7 -8 -18 -15 -24 -15 -7 0 -30 -18 -51 -40 -21 -22 -44 -40 -50 -40 -13 0 -285 -272 -285 -286 0 -6 -13 -23 -30 -39 -16 -16 -30 -34 -30 -40 0 -7 -9 -20 -20 -30 -11 -10 -20 -24 -20 -30 0 -7 -7 -18 -15 -25 -9 -7 -25 -33 -35 -56 -11 -24 -24 -45 -29 -49 -12 -7 -41 -64 -41 -81 0 -6 -13 -38 -30 -69 -16 -31 -30 -65 -30 -75 0 -11 -4 -22 -10 -25 -5 -3 -10 -17 -10 -30 0 -13 -4 -27 -10 -30 -5 -3 -10 -21 -10 -40 0 -19 -4 -37 -10 -40 -5 -3 -10 -21 -10 -40 0 -19 -4 -37 -10 -40 -5 -3 -10 -26 -10 -50 0 -24 -4 -47 -10 -50 -5 -3 -10 -44 -10 -90 0 -46 -4 -87 -10 -90 -6 -4 -10 -70 -10 -165 0 -95 4 -161 10 -165 6 -3 10 -39 10 -80 0 -41 5 -77 10 -80 6 -3 10 -30 10 -60 0 -30 5 -57 10 -60 6 -3 10 -21 10 -40 0 -19 5 -37 10 -40 6 -3 10 -15 10 -25 0 -11 9 -35 20 -55 11 -20 20 -41 20 -48 0 -16 63 -142 82 -165 8 -9 22 -33 31 -52 8 -19 32 -51 51 -69 20 -19 36 -40 36 -46 0 -14 92 -105 106 -105 5 0 28 -18 49 -40 21 -22 44 -40 51 -40 6 0 17 -6 24 -14 15 -19 190 -106 212 -106 9 0 20 -4 23 -10 3 -5 17 -10 30 -10 13 0 27 -4 30 -10 3 -5 21 -10 40 -10 19 0 37 -4 40 -10 3 -5 35 -10 70 -10 35 0 67 -4 70 -10 3 -5 42 -10 85 -10 43 0 82 5 85 10 3 6 39 10 80 10 41 0 77 5 80 10 3 6 26 10 50 10 24 0 47 5 50 10 3 6 17 10 30 10 13 0 27 5 30 10 3 6 18 10 34 10 27 0 186 74 219 102 9 8 33 22 53 31 20 9 42 23 49 32 7 8 18 15 24 15 7 0 25 14 41 30 16 17 34 30 40 30 6 0 33 23 60 50 27 28 54 50 60 50 6 0 51 41 100 90 49 50 93 90 97 90 5 0 8 -24 8 -54 0 -30 5 -58 10 -61 6 -3 10 -30 10 -60 0 -30 5 -57 10 -60 6 -3 10 -21 10 -40 0 -19 5 -37 10 -40 6 -3 10 -17 10 -30 0 -13 5 -27 10 -30 6 -3 10 -14 10 -24 0 -10 17 -51 38 -91 26 -53 47 -79 71 -92 24 -14 37 -16 44 -9 6 6 18 11 27 11 9 0 105 45 215 100 110 55 204 100 211 100 17 0 70 29 84 45 7 8 20 15 29 15 9 0 112 48 229 106 l213 107 -3 41 c-3 40 -4 41 -42 44 -21 2 -43 -1 -49 -7 -6 -6 -21 -11 -33 -11 -13 0 -26 -4 -29 -10 -3 -5 -17 -10 -30 -10 -13 0 -27 -4 -30 -10 -3 -5 -17 -10 -30 -10 -13 0 -27 -4 -30 -10 -3 -5 -21 -10 -40 -10 -19 0 -37 -4 -40 -10 -3 -5 -37 -10 -75 -10 -38 0 -72 5 -75 10 -3 6 -16 10 -29 10 -28 0 -106 78 -106 107 0 12 -4 25 -10 28 -5 3 -10 21 -10 40 0 19 -4 37 -10 40 -6 4 -10 70 -10 166 0 109 -4 165 -12 179 -10 16 -10 24 0 40 15 25 16 82 0 98 -9 9 -9 15 0 24 16 16 15 80 0 97 -11 11 -10 14 0 18 10 4 10 8 1 19 -9 11 -9 18 -1 26 16 16 15 101 0 116 -9 9 -9 15 0 24 16 16 15 60 0 77 -11 11 -10 14 0 18 10 4 10 8 1 19 -9 11 -9 18 -1 26 16 16 15 81 0 96 -9 9 -9 15 0 24 16 16 15 93 0 118 -10 16 -10 24 0 40 16 25 15 62 0 79 -11 11 -10 14 0 18 9 4 10 8 2 18 -8 10 -8 19 2 34 10 17 10 25 0 42 -10 16 -10 24 -1 35 9 11 8 18 -2 31 -11 13 -11 17 -1 21 9 3 10 7 2 17 -8 10 -8 19 2 34 11 17 10 25 -1 42 -11 18 -11 23 1 31 10 7 10 11 1 15 -16 6 -17 35 -1 51 8 8 8 15 -1 26 -10 11 -9 19 1 35 11 17 10 25 -1 43 -10 16 -11 23 -2 26 9 3 9 7 0 18 -9 11 -9 18 -1 26 7 7 12 24 12 38 0 14 -5 31 -12 38 -8 8 -8 15 2 27 10 12 10 18 -1 32 -11 13 -11 17 -1 21 9 3 10 7 2 17 -8 10 -8 19 2 34 11 17 10 25 -1 43 -10 16 -11 23 -2 26 9 3 9 7 1 17 -8 10 -8 19 2 34 11 17 10 25 -1 42 -11 18 -11 23 1 31 10 7 10 11 1 15 -16 6 -17 83 -2 83 8 0 7 6 -2 17 -11 13 -11 17 -1 21 10 3 10 7 1 19 -10 12 -10 16 2 24 9 6 11 11 3 17 -6 4 -13 15 -17 25 -14 37 -117 12 -117 -29 0 -13 -63 -74 -76 -74 -6 0 -19 -9 -29 -20 -10 -11 -23 -20 -30 -20 -7 0 -20 -9 -30 -20 -26 -29 -54 -24 -107 19 -24 19 -150 81 -165 81 -7 0 -28 9 -48 20 -20 11 -44 20 -55 20 -10 0 -22 5 -25 10 -3 6 -26 10 -50 10 -24 0 -47 5 -50 10 -3 6 -21 10 -40 10 -19 0 -37 5 -40 10 -4 6 -90 10 -225 10 -135 0 -221 -4 -225 -10z m200 -180 c3 -5 21 -10 40 -10 19 0 37 -4 40 -10 3 -5 14 -10 23 -10 27 0 156 -68 182 -95 13 -14 28 -25 35 -25 18 0 131 -122 148 -161 9 -20 23 -42 32 -49 8 -7 15 -23 15 -36 0 -12 5 -26 10 -29 6 -3 10 -17 10 -30 0 -13 5 -27 10 -30 6 -3 10 -26 10 -50 0 -24 5 -47 10 -50 7 -4 10 -299 10 -852 l0 -847 -22 -23 c-12 -13 -26 -23 -33 -23 -6 0 -33 -22 -60 -50 -27 -27 -54 -50 -60 -50 -6 0 -24 -13 -40 -30 -16 -16 -34 -30 -41 -30 -6 0 -17 -6 -23 -14 -16 -19 -271 -146 -293 -146 -9 0 -20 -4 -23 -10 -3 -5 -17 -10 -30 -10 -13 0 -27 -4 -30 -10 -3 -5 -26 -10 -50 -10 -24 0 -47 -4 -50 -10 -4 -6 -57 -10 -125 -10 -68 0 -121 4 -125 10 -3 6 -21 10 -40 10 -19 0 -37 5 -40 10 -3 6 -14 10 -24 10 -22 0 -116 47 -131 65 -7 8 -18 15 -24 15 -7 0 -25 14 -41 30 -16 17 -33 30 -39 30 -14 0 -56 41 -56 55 0 6 -13 24 -30 40 -16 16 -30 34 -30 41 0 6 -6 17 -14 24 -19 15 -106 190 -106 212 0 9 -4 20 -10 23 -5 3 -10 17 -10 30 0 13 -4 27 -10 30 -5 3 -10 17 -10 30 0 13 -4 27 -10 30 -5 3 -10 21 -10 40 0 19 -4 37 -10 40 -5 3 -10 30 -10 60 0 30 -4 57 -10 60 -5 3 -10 26 -10 50 0 24 -4 47 -10 50 -6 4 -10 107 -10 275 0 168 4 271 10 275 6 3 10 39 10 80 0 41 5 77 10 80 6 3 10 26 10 50 0 24 5 47 10 50 6 3 10 21 10 40 0 19 5 37 10 40 6 3 10 17 10 30 0 13 5 27 10 30 6 3 10 17 10 30 0 13 5 27 10 30 6 3 10 17 10 30 0 13 5 27 10 30 6 3 10 14 10 24 0 19 60 143 82 169 8 9 22 33 31 52 8 19 27 46 41 59 14 14 26 29 26 35 0 14 162 176 176 176 6 0 17 7 24 15 15 18 150 85 172 85 9 0 20 5 23 10 3 6 17 10 30 10 13 0 27 5 30 10 4 6 73 10 175 10 102 0 171 -4 175 -10z"
       id="path14"
       style="fill:#102036;fill-opacity:1" />
    <path
       d="M47825 8910 c-3 -5 -26 -10 -50 -10 -24 0 -47 -4 -50 -10 -3 -5 -26 -10 -50 -10 -24 0 -47 -4 -50 -10 -3 -5 -17 -10 -30 -10 -13 0 -27 -4 -30 -10 -3 -5 -17 -10 -30 -10 -13 0 -27 -4 -30 -10 -3 -5 -17 -10 -30 -10 -13 0 -27 -4 -30 -10 -3 -5 -14 -10 -23 -10 -22 0 -277 -127 -293 -146 -6 -8 -17 -14 -24 -14 -6 0 -20 -9 -30 -20 -10 -11 -23 -20 -30 -20 -7 0 -20 -9 -30 -20 -10 -11 -23 -20 -29 -20 -7 0 -36 -25 -66 -56 -30 -31 -65 -60 -77 -65 -13 -5 -23 -15 -23 -24 0 -8 -7 -15 -15 -15 -9 0 -19 -10 -24 -22 -5 -13 -39 -52 -75 -88 -36 -35 -66 -69 -66 -76 0 -6 -9 -19 -20 -29 -11 -10 -20 -23 -20 -30 0 -6 -13 -24 -30 -40 -16 -16 -30 -34 -30 -41 0 -6 -6 -17 -14 -23 -17 -14 -126 -230 -126 -248 0 -7 -9 -28 -20 -48 -11 -20 -20 -44 -20 -55 0 -10 -4 -22 -10 -25 -5 -3 -10 -21 -10 -40 0 -19 -4 -37 -10 -40 -5 -3 -10 -21 -10 -40 0 -19 -4 -37 -10 -40 -5 -3 -10 -26 -10 -50 0 -24 -4 -47 -10 -50 -5 -3 -10 -39 -10 -80 0 -41 -4 -77 -10 -80 -6 -4 -10 -83 -10 -205 0 -122 4 -201 10 -205 6 -3 10 -35 10 -70 0 -35 5 -67 10 -70 6 -3 10 -30 10 -60 0 -30 5 -57 10 -60 6 -3 10 -17 10 -30 0 -13 5 -27 10 -30 6 -3 10 -17 10 -30 0 -13 5 -27 10 -30 6 -3 10 -17 10 -30 0 -13 5 -27 10 -30 6 -3 10 -17 10 -29 0 -13 7 -29 15 -36 8 -7 29 -41 45 -75 16 -34 37 -68 45 -75 8 -7 15 -18 15 -24 0 -7 14 -25 30 -41 17 -16 30 -34 30 -40 0 -13 132 -145 146 -145 6 0 23 -13 39 -30 16 -16 34 -30 40 -30 7 0 20 -9 30 -20 10 -11 23 -20 30 -20 7 0 20 -9 30 -20 10 -11 26 -20 36 -20 9 0 43 -13 74 -30 31 -16 65 -30 75 -30 11 0 22 -4 25 -10 3 -5 21 -10 40 -10 19 0 37 -4 40 -10 3 -5 39 -10 80 -10 41 0 77 -4 80 -10 3 -5 37 -10 75 -10 38 0 72 5 75 10 3 6 44 10 90 10 46 0 87 5 90 10 3 6 26 10 50 10 24 0 47 5 50 10 3 6 17 10 30 10 13 0 27 5 30 10 3 6 17 10 30 10 13 0 27 5 30 10 3 6 14 10 23 10 22 0 157 67 172 85 7 8 18 15 25 15 6 0 20 9 30 20 10 11 23 20 30 20 7 0 20 9 30 20 10 11 23 20 30 20 6 0 24 14 40 30 16 17 34 30 40 30 6 0 33 23 60 50 27 28 54 50 60 50 6 0 46 36 90 80 44 44 83 80 87 80 5 0 8 -33 8 -74 0 -41 5 -78 10 -81 6 -3 10 -26 10 -50 0 -24 5 -47 10 -50 6 -3 10 -21 10 -40 0 -19 5 -37 10 -40 6 -3 10 -17 10 -30 0 -13 5 -27 10 -30 6 -3 10 -15 10 -26 0 -20 15 -52 39 -82 8 -9 19 -27 25 -39 15 -29 75 -63 89 -49 6 6 18 11 27 11 9 0 141 63 295 140 154 77 287 140 296 140 9 0 22 7 29 15 13 16 67 45 84 45 6 0 71 30 144 66 l133 67 -3 41 c-3 40 -4 41 -42 44 -21 2 -43 -1 -49 -7 -6 -6 -21 -11 -33 -11 -13 0 -26 -4 -29 -10 -3 -5 -17 -10 -30 -10 -13 0 -27 -4 -30 -10 -3 -5 -17 -10 -30 -10 -13 0 -27 -4 -30 -10 -3 -5 -26 -10 -50 -10 -24 0 -47 -4 -50 -10 -3 -5 -33 -10 -65 -10 -32 0 -62 5 -65 10 -3 6 -16 10 -29 10 -13 0 -38 17 -61 43 -51 53 -65 79 -65 116 0 17 -4 33 -10 36 -5 3 -10 39 -10 79 0 39 -4 76 -10 82 -6 6 -11 421 -12 1184 l-3 1175 -39 3 c-31 3 -44 -2 -67 -24 -16 -15 -29 -34 -29 -41 0 -7 -6 -13 -13 -13 -7 0 -31 -18 -52 -40 -21 -22 -44 -40 -50 -40 -7 0 -20 -9 -30 -20 -10 -11 -23 -20 -30 -20 -14 0 -98 42 -120 60 -23 19 -106 60 -121 60 -8 0 -29 9 -49 20 -20 11 -49 20 -65 20 -16 0 -32 5 -35 10 -3 6 -21 10 -40 10 -19 0 -37 5 -40 10 -3 6 -21 10 -40 10 -19 0 -37 5 -40 10 -4 6 -90 10 -225 10 -135 0 -221 -4 -225 -10z m200 -180 c3 -5 21 -10 40 -10 19 0 37 -4 40 -10 3 -5 14 -10 24 -10 22 0 116 -47 131 -65 7 -8 18 -15 25 -15 6 0 20 -9 30 -20 10 -11 23 -20 29 -20 14 0 96 -81 96 -95 0 -6 11 -22 25 -35 27 -26 95 -155 95 -182 0 -9 5 -20 10 -23 6 -3 10 -35 10 -70 0 -35 5 -67 10 -70 7 -4 10 -293 10 -836 0 -667 -2 -829 -13 -829 -7 0 -39 -27 -72 -60 -33 -33 -64 -60 -70 -60 -6 0 -24 -13 -40 -30 -16 -16 -34 -30 -40 -30 -7 0 -20 -9 -30 -20 -10 -11 -24 -20 -30 -20 -7 0 -18 -6 -24 -14 -16 -19 -231 -126 -253 -126 -9 0 -20 -4 -23 -10 -3 -5 -17 -10 -30 -10 -13 0 -27 -4 -30 -10 -3 -5 -26 -10 -50 -10 -24 0 -47 -4 -50 -10 -4 -6 -57 -10 -125 -10 -68 0 -121 4 -125 10 -3 6 -21 10 -40 10 -19 0 -37 5 -40 10 -3 6 -14 10 -23 10 -22 0 -157 67 -172 85 -7 8 -17 15 -23 15 -15 0 -117 101 -117 115 0 7 -11 22 -25 35 -27 25 -155 275 -155 302 0 9 -4 20 -10 23 -5 3 -10 19 -10 35 0 16 -9 45 -20 65 -12 22 -20 54 -20 85 0 27 -4 52 -10 55 -5 3 -10 30 -10 60 0 30 -4 57 -10 60 -6 4 -10 120 -10 315 0 195 4 311 10 315 6 3 10 30 10 60 0 30 5 57 10 60 6 3 10 26 10 50 0 24 5 47 10 50 6 3 10 21 10 40 0 19 5 37 10 40 6 3 10 17 10 30 0 13 5 27 10 30 6 3 10 15 10 25 0 11 9 35 20 55 11 20 20 41 20 48 0 16 63 142 82 165 8 9 22 33 31 53 9 20 23 42 32 49 8 7 15 17 15 24 0 14 181 196 196 196 6 0 17 7 24 15 15 18 150 85 172 85 9 0 20 5 23 10 3 6 17 10 30 10 13 0 27 5 30 10 4 6 73 10 175 10 102 0 171 -4 175 -10z"
       id="path15"
       style="fill:#102036;fill-opacity:1" />
    <path
       d="M57465 8910 c-3 -5 -26 -10 -50 -10 -24 0 -47 -4 -50 -10 -3 -5 -21 -10 -40 -10 -19 0 -37 -4 -40 -10 -3 -5 -17 -10 -30 -10 -13 0 -27 -4 -30 -10 -3 -5 -14 -10 -23 -10 -22 0 -197 -87 -212 -106 -7 -8 -18 -14 -25 -14 -6 0 -20 -9 -30 -20 -10 -11 -23 -20 -30 -20 -7 0 -20 -9 -30 -20 -10 -11 -23 -20 -30 -20 -6 0 -24 -13 -40 -30 -16 -16 -34 -30 -39 -30 -6 0 -79 -67 -161 -150 -82 -82 -153 -150 -157 -150 -5 0 -8 47 -8 104 0 59 -4 108 -10 111 -5 3 -10 26 -10 50 0 24 -4 47 -10 50 -5 3 -10 17 -10 30 0 13 -4 27 -10 30 -5 3 -10 14 -10 24 0 22 -47 116 -65 131 -8 7 -15 18 -15 25 0 8 -25 26 -55 41 l-55 27 -123 -62 c-67 -34 -127 -61 -133 -61 -5 0 -73 -31 -149 -70 -76 -38 -146 -70 -155 -70 -9 0 -25 -9 -35 -20 -10 -11 -25 -20 -34 -20 -9 0 -103 -43 -208 -96 -180 -90 -193 -98 -193 -124 0 -15 8 -34 18 -43 20 -19 67 -23 77 -7 3 6 17 10 30 10 13 0 27 5 30 10 3 6 17 10 30 10 13 0 27 5 30 10 3 6 17 10 30 10 13 0 27 5 30 10 3 6 21 10 40 10 19 0 37 5 40 10 9 15 191 13 218 -2 36 -21 97 -81 113 -112 7 -16 14 -42 14 -57 0 -15 5 -31 10 -34 6 -4 10 -55 10 -120 0 -65 4 -116 10 -120 7 -4 10 -277 10 -785 0 -508 -3 -781 -10 -785 -6 -3 -10 -52 -10 -110 0 -58 -4 -107 -10 -110 -5 -3 -10 -21 -10 -40 0 -19 -4 -37 -10 -40 -5 -3 -10 -14 -10 -24 0 -23 -26 -75 -46 -91 -43 -36 -150 -80 -195 -80 -26 0 -51 -4 -54 -10 -3 -5 -30 -10 -59 -10 -76 0 -111 -44 -68 -84 17 -15 81 -16 768 -14 l749 3 0 45 0 45 -55 3 c-30 2 -59 7 -65 13 -5 5 -34 9 -65 9 -57 0 -144 33 -170 65 -7 8 -19 15 -26 15 -8 0 -14 6 -14 13 0 8 -9 22 -20 32 -11 10 -20 28 -20 41 0 13 -4 26 -10 29 -5 3 -10 26 -10 50 0 24 -4 47 -10 50 -7 4 -10 336 -10 963 l0 956 42 43 c23 24 47 43 53 43 6 0 29 18 50 40 21 22 44 40 51 40 6 0 17 7 24 15 7 9 29 23 49 32 20 9 44 23 53 31 26 22 109 62 129 62 10 0 21 5 24 10 3 6 17 10 30 10 13 0 27 5 30 10 3 6 17 10 30 10 13 0 27 5 30 10 3 6 17 10 30 10 13 0 27 5 30 10 3 6 35 10 70 10 35 0 67 5 70 10 3 6 28 10 55 10 27 0 52 -4 55 -10 3 -5 39 -10 80 -10 41 0 77 -4 80 -10 3 -5 18 -10 34 -10 64 0 281 -135 281 -176 0 -6 7 -17 15 -24 18 -15 85 -150 85 -172 0 -9 5 -20 10 -23 6 -3 10 -21 10 -40 0 -19 5 -37 10 -40 6 -3 10 -30 10 -60 0 -30 5 -57 10 -60 7 -4 10 -293 10 -835 0 -542 -3 -831 -10 -835 -5 -3 -10 -26 -10 -50 0 -24 -4 -47 -10 -50 -5 -3 -10 -14 -10 -23 0 -25 -43 -112 -56 -112 -6 0 -17 -7 -24 -15 -16 -19 -68 -45 -91 -45 -10 0 -21 -4 -24 -10 -3 -5 -30 -10 -59 -10 -28 0 -56 -4 -61 -9 -6 -6 -35 -11 -65 -13 l-55 -3 0 -45 0 -45 765 0 765 0 0 45 0 45 -65 3 c-36 2 -69 7 -75 13 -5 5 -33 9 -61 9 -29 0 -56 5 -59 10 -3 6 -14 10 -24 10 -26 0 -73 26 -100 54 -28 30 -71 113 -71 137 0 10 -4 21 -10 24 -5 3 -10 39 -10 80 0 41 -4 77 -10 80 -7 4 -10 325 -10 930 0 605 -3 926 -10 930 -5 3 -10 26 -10 50 0 24 -4 47 -10 50 -5 3 -10 21 -10 40 0 19 -4 37 -10 40 -5 3 -10 14 -10 23 0 27 -88 197 -115 222 -14 13 -25 28 -25 35 0 14 -132 145 -147 145 -6 0 -16 7 -23 15 -15 18 -150 85 -172 85 -9 0 -20 5 -23 10 -3 6 -17 10 -30 10 -13 0 -27 5 -30 10 -3 6 -26 10 -50 10 -24 0 -47 5 -50 10 -4 6 -77 10 -185 10 -108 0 -181 -4 -185 -10z"
       id="path16"
       style="fill:#102036;fill-opacity:1" />
    <path
       d="M61105 8910 c-3 -5 -26 -10 -50 -10 -24 0 -47 -4 -50 -10 -3 -5 -26 -10 -50 -10 -24 0 -47 -4 -50 -10 -3 -5 -21 -10 -40 -10 -19 0 -37 -4 -40 -10 -3 -5 -17 -10 -30 -10 -13 0 -27 -4 -30 -10 -3 -5 -14 -10 -24 -10 -10 0 -53 -18 -96 -40 -43 -22 -83 -40 -89 -40 -18 0 -113 -49 -126 -65 -7 -8 -18 -15 -25 -15 -7 0 -18 -7 -25 -15 -7 -9 -32 -24 -54 -35 -23 -10 -57 -35 -75 -54 -19 -20 -40 -36 -46 -36 -13 0 -265 -252 -265 -266 0 -6 -13 -23 -30 -39 -16 -16 -30 -34 -30 -40 0 -6 -13 -24 -30 -40 -16 -16 -30 -34 -30 -41 0 -6 -6 -17 -14 -23 -17 -14 -146 -270 -146 -288 0 -7 -9 -28 -20 -48 -11 -20 -20 -49 -20 -65 0 -16 -4 -32 -10 -35 -5 -3 -10 -17 -10 -30 0 -13 -4 -27 -10 -30 -5 -3 -10 -21 -10 -40 0 -19 -4 -37 -10 -40 -5 -3 -10 -30 -10 -60 0 -30 -4 -57 -10 -60 -6 -3 -10 -52 -10 -110 0 -58 -4 -107 -10 -110 -5 -3 -10 -46 -10 -95 0 -49 5 -92 10 -95 6 -3 10 -52 10 -110 0 -58 4 -107 10 -110 6 -3 10 -26 10 -50 0 -24 5 -47 10 -50 6 -3 10 -26 10 -50 0 -24 5 -47 10 -50 6 -3 10 -17 10 -30 0 -13 5 -27 10 -30 6 -3 10 -15 10 -25 0 -11 9 -35 20 -55 11 -20 20 -41 20 -48 0 -19 49 -113 65 -127 8 -7 15 -18 15 -25 0 -6 9 -20 20 -30 11 -10 20 -23 20 -29 0 -14 231 -246 246 -246 6 0 21 -11 34 -25 25 -27 195 -115 222 -115 9 0 20 -4 23 -10 3 -5 17 -10 30 -10 13 0 27 -4 30 -10 3 -5 21 -10 40 -10 19 0 37 -4 40 -10 3 -5 35 -10 70 -10 35 0 67 -4 70 -10 8 -13 162 -13 170 0 3 6 44 10 90 10 46 0 87 5 90 10 3 6 21 10 40 10 19 0 37 5 40 10 3 6 17 10 30 10 13 0 27 5 30 10 3 6 18 10 33 10 29 0 243 102 263 126 6 8 17 14 24 14 6 0 20 9 30 20 10 11 23 20 30 20 7 0 20 9 30 20 10 11 23 20 30 20 6 0 29 18 50 40 21 22 44 40 50 40 6 0 60 49 120 110 60 61 113 110 117 110 5 0 8 -15 8 -34 0 -19 5 -38 10 -41 6 -3 10 -35 10 -70 0 -35 5 -67 10 -70 6 -3 10 -26 10 -50 0 -24 5 -47 10 -50 6 -3 10 -17 10 -30 0 -13 5 -27 10 -30 6 -3 10 -14 10 -24 0 -10 17 -51 38 -91 26 -53 47 -79 71 -92 24 -14 37 -16 44 -9 6 6 18 11 27 11 9 0 79 32 155 70 76 39 146 70 156 70 9 0 22 7 29 15 14 16 67 45 84 45 6 0 138 64 294 141 218 110 282 146 282 160 0 11 -4 19 -9 19 -5 0 -11 9 -14 20 -4 16 -14 20 -45 20 -23 0 -44 -4 -47 -10 -3 -5 -17 -10 -30 -10 -13 0 -27 -4 -30 -10 -3 -5 -17 -10 -30 -10 -13 0 -27 -4 -30 -10 -3 -5 -17 -10 -30 -10 -13 0 -27 -4 -30 -10 -3 -5 -21 -10 -40 -10 -19 0 -37 -4 -40 -10 -3 -5 -37 -10 -75 -10 -38 0 -72 5 -75 10 -3 6 -16 10 -29 10 -43 0 -126 119 -126 181 0 15 -4 31 -10 34 -7 4 -10 428 -10 1239 0 1182 -1 1234 -18 1249 -25 23 -91 23 -99 0 -8 -24 -84 -103 -98 -103 -6 0 -22 -11 -35 -25 -25 -27 -74 -55 -95 -55 -7 0 -18 6 -25 14 -13 17 -189 106 -207 106 -7 0 -28 9 -48 20 -20 11 -44 20 -55 20 -10 0 -22 5 -25 10 -3 6 -26 10 -50 10 -24 0 -47 5 -50 10 -3 6 -21 10 -40 10 -19 0 -37 5 -40 10 -4 6 -87 10 -215 10 -128 0 -211 -4 -215 -10z m200 -180 c3 -5 17 -10 30 -10 13 0 27 -4 30 -10 3 -5 14 -10 23 -10 22 0 157 -67 172 -85 7 -8 17 -15 23 -15 15 0 157 -141 157 -156 0 -6 7 -17 15 -24 18 -15 65 -109 65 -131 0 -10 5 -21 10 -24 6 -3 10 -26 10 -50 0 -24 5 -47 10 -50 7 -4 10 -303 10 -864 l0 -857 -43 -42 c-23 -23 -47 -42 -53 -42 -6 0 -23 -13 -39 -30 -16 -16 -34 -30 -40 -30 -6 0 -24 -13 -40 -30 -16 -16 -34 -30 -41 -30 -6 0 -17 -7 -24 -15 -7 -9 -29 -23 -49 -32 -20 -9 -44 -23 -53 -31 -26 -22 -109 -62 -129 -62 -10 0 -21 -4 -24 -10 -3 -5 -17 -10 -30 -10 -13 0 -27 -4 -30 -10 -3 -5 -17 -10 -30 -10 -13 0 -27 -4 -30 -10 -3 -5 -21 -10 -40 -10 -19 0 -37 -4 -40 -10 -4 -6 -60 -10 -135 -10 -75 0 -131 4 -135 10 -3 6 -21 10 -40 10 -19 0 -37 5 -40 10 -3 6 -14 10 -24 10 -22 0 -116 47 -131 65 -7 8 -18 15 -24 15 -6 0 -52 42 -102 93 -71 71 -99 109 -128 169 -21 43 -41 80 -46 83 -13 8 -40 66 -40 86 0 10 -4 21 -10 24 -5 3 -10 21 -10 40 0 19 -4 37 -10 40 -5 3 -10 17 -10 30 0 13 -4 27 -10 30 -5 3 -10 21 -10 40 0 19 -4 37 -10 40 -5 3 -10 30 -10 60 0 30 -4 57 -10 60 -5 3 -10 39 -10 80 0 41 -4 77 -10 80 -6 4 -10 87 -10 215 0 128 4 211 10 215 6 3 10 39 10 80 0 41 5 77 10 80 6 3 10 30 10 60 0 30 5 57 10 60 6 3 10 26 10 50 0 24 5 47 10 50 6 3 10 17 10 30 0 13 5 27 10 30 6 3 10 17 10 30 0 13 5 27 10 30 6 3 10 14 10 23 0 22 127 277 146 293 8 6 14 17 14 23 0 7 14 25 30 41 17 16 30 33 30 39 0 14 122 136 136 136 6 0 19 9 29 20 10 11 24 20 30 20 7 0 18 7 25 15 15 18 109 65 131 65 10 0 21 5 24 10 3 6 21 10 40 10 19 0 37 5 40 10 4 6 73 10 175 10 102 0 171 -4 175 -10z"
       id="path17"
       style="fill:#102036;fill-opacity:1" />
    <path
       d="M34545 8890 c-3 -5 -14 -10 -24 -10 -10 0 -53 -18 -96 -40 -43 -22 -83 -40 -90 -40 -6 0 -65 -27 -130 -60 -65 -33 -124 -60 -130 -60 -6 0 -65 -27 -130 -60 -65 -33 -123 -60 -129 -60 -17 0 -233 -110 -245 -124 -8 -9 -7 -22 5 -45 13 -27 21 -31 54 -31 21 0 42 5 45 10 3 6 17 10 30 10 13 0 27 5 30 10 3 6 28 10 56 10 27 0 58 6 69 12 16 10 24 10 40 0 11 -6 26 -12 33 -12 27 0 78 -32 87 -54 4 -12 15 -28 24 -35 9 -7 16 -24 16 -37 0 -12 5 -26 10 -29 6 -3 10 -26 10 -50 0 -24 5 -47 10 -50 7 -4 10 -265 10 -750 0 -485 3 -746 10 -750 6 -3 10 -52 10 -110 0 -58 4 -107 10 -110 6 -3 10 -21 10 -40 0 -19 5 -37 10 -40 6 -3 10 -23 10 -45 0 -23 12 -60 30 -95 17 -31 30 -65 30 -74 0 -10 9 -26 20 -36 11 -10 20 -23 20 -30 0 -7 9 -20 20 -30 11 -10 20 -23 20 -29 0 -15 132 -146 147 -146 6 0 16 -7 23 -15 15 -18 150 -85 172 -85 9 0 20 -4 23 -10 3 -5 17 -10 30 -10 13 0 27 -4 30 -10 3 -5 30 -10 60 -10 30 0 57 -4 60 -10 4 -6 57 -10 125 -10 68 0 121 4 125 10 3 6 35 10 70 10 35 0 67 5 70 10 3 6 21 10 40 10 19 0 37 5 40 10 3 6 17 10 30 10 13 0 27 5 30 10 3 6 18 10 33 10 29 0 283 122 303 146 6 8 17 14 24 14 6 0 20 9 30 20 10 11 23 20 30 20 7 0 20 9 30 20 10 11 23 20 29 20 7 0 34 23 61 50 27 28 54 50 60 50 6 0 55 45 110 100 55 55 103 100 107 100 12 0 10 -1518 -2 -1525 -6 -4 -10 -55 -10 -120 0 -65 -4 -116 -10 -120 -5 -3 -10 -35 -10 -70 0 -35 -4 -67 -10 -70 -5 -3 -10 -21 -10 -40 0 -19 -4 -37 -10 -40 -5 -3 -10 -21 -10 -40 0 -19 -4 -37 -10 -40 -5 -3 -10 -17 -10 -30 0 -13 -4 -27 -10 -30 -5 -3 -10 -14 -10 -24 0 -22 -47 -116 -65 -131 -8 -7 -15 -18 -15 -24 0 -15 -142 -156 -157 -156 -6 0 -16 -7 -23 -15 -18 -22 -111 -65 -141 -65 -15 0 -31 -4 -34 -10 -3 -5 -34 -10 -69 -10 -35 0 -67 -5 -74 -12 -9 -9 -15 -9 -24 0 -8 8 -46 12 -104 12 -51 0 -96 5 -99 10 -3 5 -17 10 -30 10 -13 0 -27 5 -30 10 -3 5 -14 10 -24 10 -26 0 -115 47 -141 75 -13 14 -28 25 -35 25 -13 0 -135 122 -135 136 0 6 -13 23 -30 39 -16 16 -30 34 -30 40 0 6 -13 24 -30 40 -16 16 -30 34 -30 40 0 6 -18 29 -40 50 -22 21 -40 44 -40 50 0 6 -24 34 -53 63 -54 53 -135 102 -168 102 -10 0 -21 5 -24 10 -3 6 -42 10 -85 10 -43 0 -82 -4 -85 -10 -3 -5 -14 -10 -24 -10 -31 0 -74 -27 -116 -72 -51 -54 -65 -80 -65 -117 0 -17 -4 -33 -10 -36 -5 -3 -10 -28 -10 -55 0 -27 5 -52 10 -55 6 -3 10 -21 10 -40 0 -19 5 -37 10 -40 6 -3 10 -16 10 -29 0 -13 9 -31 20 -41 11 -10 20 -23 20 -29 0 -15 132 -146 146 -146 6 0 19 -9 29 -20 10 -11 23 -20 30 -20 7 0 20 -9 30 -20 10 -11 26 -20 36 -20 9 0 43 -13 74 -30 31 -16 65 -30 75 -30 11 0 22 -4 25 -10 3 -5 21 -10 40 -10 19 0 37 -5 40 -10 3 -6 17 -10 30 -10 13 0 27 -4 30 -10 3 -5 30 -10 60 -10 30 0 57 -4 60 -10 3 -6 52 -10 111 -10 63 0 104 -4 104 -10 0 -6 40 -10 100 -10 60 0 100 4 100 10 0 6 45 10 114 10 66 0 117 4 121 10 3 6 26 10 50 10 24 0 47 4 50 10 3 5 26 10 50 10 24 0 47 5 50 10 3 6 17 10 30 10 13 0 27 5 30 10 3 5 17 10 30 10 13 0 27 5 30 10 3 5 15 10 25 10 11 0 35 9 55 20 20 11 44 20 54 20 10 0 24 7 31 15 7 9 32 25 55 35 23 10 48 26 55 35 7 8 18 15 25 15 6 0 20 9 30 20 10 11 23 20 29 20 14 0 266 252 266 266 0 6 9 19 20 29 11 10 20 23 20 30 0 7 9 20 20 30 11 10 20 24 20 30 0 7 7 18 15 25 16 13 85 149 85 167 0 7 9 28 20 48 11 20 20 44 20 55 0 10 5 22 10 25 6 3 10 17 10 30 0 13 5 27 10 30 6 3 10 21 10 40 0 19 5 37 10 40 6 3 10 21 10 40 0 19 5 37 10 40 6 3 10 35 10 70 0 35 5 67 10 70 6 4 10 58 10 129 0 79 4 126 12 134 8 8 8 15 -2 27 -10 12 -10 19 -2 27 15 15 17 444 2 453 -14 9 -13 85 1 85 8 0 7 5 -2 16 -10 13 -10 17 2 26 11 7 11 11 2 15 -16 6 -17 43 -2 43 8 0 8 5 -1 15 -10 12 -10 18 0 30 10 12 10 18 0 30 -10 12 -10 19 -2 27 15 15 16 65 2 73 -14 9 -13 98 2 113 8 8 8 15 -2 27 -10 12 -10 18 0 30 10 12 10 18 -1 31 -10 13 -10 17 2 26 11 7 11 11 2 15 -16 6 -17 75 -1 91 8 8 8 15 -3 28 -11 14 -11 18 -1 22 10 3 10 7 0 20 -11 12 -11 16 0 20 9 3 10 7 2 17 -8 10 -8 19 2 34 10 17 10 25 0 41 -10 16 -10 24 0 40 10 16 10 24 0 41 -10 15 -11 24 -3 32 15 15 14 60 -1 75 -9 9 -9 15 0 24 7 7 12 42 12 88 0 46 -5 81 -12 88 -9 9 -9 15 0 24 17 17 17 859 0 876 -9 9 -9 15 0 24 7 7 12 33 12 58 0 25 -5 51 -12 58 -9 9 -9 15 0 24 15 15 16 160 1 175 -8 8 -7 17 3 32 10 17 10 25 0 42 -10 16 -11 24 -1 35 9 11 9 18 1 26 -15 15 -16 124 -2 133 6 4 10 70 10 165 0 95 -4 161 -10 165 -5 3 -10 16 -10 29 0 24 -18 43 -63 66 -24 12 -32 11 -68 -8 -23 -12 -46 -22 -53 -22 -7 0 -75 -31 -151 -70 -76 -38 -144 -70 -150 -70 -6 0 -65 -27 -130 -60 -65 -33 -123 -60 -130 -60 -13 0 -299 -143 -320 -160 -37 -31 -1 -80 58 -80 20 0 39 5 42 10 3 6 17 10 30 10 13 0 27 5 30 10 3 6 24 10 46 10 21 0 48 6 59 12 16 10 24 10 40 0 11 -6 32 -12 48 -12 18 0 38 -10 56 -29 36 -38 76 -117 76 -152 0 -15 5 -31 10 -34 6 -3 10 -35 10 -70 0 -35 5 -67 10 -70 7 -4 10 -269 10 -763 l0 -758 -63 -62 c-34 -34 -67 -62 -73 -62 -6 0 -23 -13 -39 -30 -16 -16 -34 -30 -40 -30 -7 0 -20 -9 -30 -20 -10 -11 -23 -20 -30 -20 -7 0 -20 -9 -30 -20 -10 -11 -26 -20 -35 -20 -22 0 -74 -26 -90 -45 -7 -8 -23 -15 -36 -15 -12 0 -26 -4 -29 -10 -3 -5 -17 -10 -30 -10 -13 0 -27 -4 -30 -10 -3 -5 -17 -10 -30 -10 -13 0 -27 -4 -30 -10 -3 -5 -17 -10 -30 -10 -13 0 -27 -4 -30 -10 -3 -5 -35 -10 -70 -10 -35 0 -67 -4 -70 -10 -3 -5 -33 -10 -65 -10 -32 0 -62 5 -65 10 -3 6 -35 10 -70 10 -35 0 -67 5 -70 10 -3 6 -17 10 -30 10 -13 0 -27 5 -30 10 -3 6 -16 10 -29 10 -13 0 -31 9 -41 20 -10 11 -23 20 -29 20 -6 0 -42 31 -79 68 -66 66 -137 183 -137 223 0 10 -4 21 -10 24 -5 3 -10 17 -10 30 0 13 -4 27 -10 30 -5 3 -10 21 -10 40 0 19 -4 37 -10 40 -5 3 -10 39 -10 80 0 41 -4 77 -10 80 -7 4 -10 351 -10 1009 l0 1002 -27 25 c-27 23 -67 49 -77 49 -3 0 -8 -4 -11 -10z"
       id="path18"
       style="fill:#102036;fill-opacity:1" />
    <path
       d="M50881 8839 c-63 -32 -120 -59 -126 -59 -6 0 -109 -49 -230 -110 -121 -60 -224 -110 -230 -110 -22 0 -315 -153 -315 -165 0 -6 7 -26 16 -43 12 -25 22 -32 44 -32 16 0 32 5 35 10 3 6 17 10 30 10 13 0 27 5 30 10 3 6 17 10 30 10 13 0 27 5 30 10 3 6 17 10 30 10 13 0 27 5 30 10 3 6 21 10 40 10 19 0 37 5 40 10 3 6 47 10 98 10 74 0 100 -4 139 -22 26 -13 48 -28 48 -34 0 -6 7 -17 15 -24 22 -18 45 -70 45 -101 0 -15 5 -31 10 -34 6 -3 10 -30 10 -60 0 -30 5 -57 10 -60 7 -4 10 -313 10 -895 0 -582 -3 -891 -10 -895 -5 -3 -10 -39 -10 -80 0 -41 -4 -77 -10 -80 -5 -3 -10 -14 -10 -24 0 -24 -43 -107 -71 -137 -27 -28 -74 -54 -100 -54 -10 0 -21 -4 -24 -10 -3 -5 -30 -10 -60 -10 -30 0 -57 -4 -60 -10 -3 -5 -30 -10 -59 -10 -76 0 -111 -44 -68 -84 17 -15 91 -16 908 -14 l889 3 0 45 0 45 -105 3 c-58 1 -109 7 -114 12 -6 6 -47 10 -92 10 -46 0 -86 5 -89 10 -3 6 -26 10 -50 10 -24 0 -47 5 -50 10 -3 6 -16 10 -29 10 -13 0 -31 9 -41 20 -10 11 -23 20 -30 20 -37 0 -135 146 -135 201 0 15 -4 31 -10 34 -7 4 -10 333 -10 953 l0 947 153 151 c83 83 168 158 188 167 20 9 42 23 49 32 7 8 23 15 36 15 12 0 26 5 29 10 3 6 34 10 69 10 69 0 144 -30 186 -75 13 -14 28 -25 35 -25 6 0 33 -22 60 -50 27 -27 54 -50 61 -50 6 0 19 -9 29 -20 10 -11 28 -20 41 -20 13 0 26 -4 29 -10 9 -15 210 -13 238 2 36 21 127 111 142 142 10 19 15 60 15 116 0 72 -4 95 -24 135 -26 51 -102 135 -122 135 -6 0 -17 7 -24 15 -14 17 -67 45 -86 45 -7 0 -29 9 -49 20 -22 12 -54 20 -85 20 -27 0 -52 5 -55 10 -3 6 -24 10 -45 10 -21 0 -42 -4 -45 -10 -3 -5 -26 -10 -50 -10 -24 0 -47 -4 -50 -10 -3 -5 -14 -10 -23 -10 -27 0 -197 -88 -222 -115 -13 -14 -29 -25 -35 -25 -6 0 -29 -18 -50 -40 -21 -22 -44 -40 -50 -40 -13 0 -245 -232 -245 -246 0 -11 -82 -94 -93 -94 -4 0 -7 11 -7 24 0 14 -4 28 -10 31 -5 3 -10 39 -10 80 0 41 -4 77 -10 80 -5 3 -10 24 -10 45 0 22 -9 55 -20 75 -11 20 -20 41 -20 48 0 18 -64 144 -86 168 -23 25 -72 49 -98 48 -12 -1 -72 -28 -135 -60z"
       id="path19"
       style="fill:#102036;fill-opacity:1" />
    <path
       d="M54185 8880 c-16 -10 -37 -19 -46 -19 -8 -1 -69 -28 -134 -61 -65 -33 -124 -60 -130 -60 -6 0 -74 -31 -150 -70 -76 -38 -144 -70 -150 -70 -6 0 -65 -27 -130 -60 -65 -33 -124 -60 -130 -60 -14 0 -179 -82 -200 -100 -21 -17 -19 -63 3 -83 25 -22 54 -21 97 3 20 11 42 20 50 20 8 0 30 9 50 20 20 11 49 20 65 20 16 0 32 5 35 10 3 6 37 10 75 10 38 0 72 -4 75 -10 3 -5 16 -10 29 -10 35 0 106 -86 106 -129 0 -11 5 -23 10 -26 6 -3 10 -21 10 -40 0 -19 5 -37 10 -40 7 -4 10 -337 10 -965 0 -628 -3 -961 -10 -965 -5 -3 -10 -21 -10 -40 0 -19 -4 -37 -10 -40 -5 -3 -10 -14 -10 -23 0 -25 -43 -112 -56 -112 -6 0 -17 -7 -24 -15 -16 -19 -68 -45 -91 -45 -10 0 -21 -4 -24 -10 -3 -5 -30 -10 -59 -10 -28 0 -56 -4 -61 -9 -6 -6 -35 -11 -65 -13 l-55 -3 0 -45 0 -45 749 -3 c687 -2 751 -1 768 14 44 40 7 84 -70 84 -28 0 -54 5 -57 10 -3 6 -30 10 -60 10 -30 0 -57 5 -60 10 -3 6 -15 10 -26 10 -58 0 -169 112 -169 171 0 10 -4 21 -10 24 -5 3 -10 30 -10 60 0 30 -4 57 -10 60 -7 4 -10 403 -10 1165 0 762 3 1161 10 1165 6 4 10 59 10 134 l0 127 -38 37 c-42 41 -54 44 -97 17z"
       id="path20"
       style="fill:#102036;fill-opacity:1" />
  </g>
</svg>
