<?xml version="1.0" encoding="UTF-8" standalone="no"?>
<svg
   viewBox="0 0 92 92"
   id="Menu"
   version="1.1"
   sodipodi:docname="menu-blue.svg"
   inkscape:version="1.3 (0e150ed6c4, 2023-07-21)"
   xmlns:inkscape="http://www.inkscape.org/namespaces/inkscape"
   xmlns:sodipodi="http://sodipodi.sourceforge.net/DTD/sodipodi-0.dtd"
   xmlns="http://www.w3.org/2000/svg"
   xmlns:svg="http://www.w3.org/2000/svg">
  <defs
     id="defs1" />
  <sodipodi:namedview
     id="namedview1"
     pagecolor="#ffffff"
     bordercolor="#000000"
     borderopacity="0.25"
     inkscape:showpageshadow="2"
     inkscape:pageopacity="0.0"
     inkscape:pagecheckerboard="0"
     inkscape:deskcolor="#d1d1d1"
     inkscape:zoom="8.8369565"
     inkscape:cx="46"
     inkscape:cy="46"
     inkscape:window-width="1920"
     inkscape:window-height="1009"
     inkscape:window-x="-8"
     inkscape:window-y="-8"
     inkscape:window-maximized="1"
     inkscape:current-layer="Menu" />
  <path
     d="M78 23.5H14c-3.6 0-6.5-2.9-6.5-6.5s2.9-6.5 6.5-6.5h64c3.6 0 6.5 2.9 6.5 6.5s-2.9 6.5-6.5 6.5zM84.5 46c0-3.6-2.9-6.5-6.5-6.5H14c-3.6 0-6.5 2.9-6.5 6.5s2.9 6.5 6.5 6.5h64c3.6 0 6.5-2.9 6.5-6.5zm0 29c0-3.6-2.9-6.5-6.5-6.5H14c-3.6 0-6.5 2.9-6.5 6.5s2.9 6.5 6.5 6.5h64c3.6 0 6.5-2.9 6.5-6.5z"
     fill="#26282f"
     class="color000000 svgShape"
     id="path1"
     style="fill:#858585;fill-opacity:1" />
  <path
     style="fill:#85a9cf;fill-opacity:1;stroke-width:0.113161"
     d="M 12.447724,23.245259 C 11.287653,22.939202 10.408274,22.422715 9.4938523,21.510356 8.1900591,20.209505 7.5795635,18.76715 7.5834685,16.99689 c 0.00631,-2.8595 1.8882502,-5.348272 4.6945145,-6.208254 0.652505,-0.199961 1.966784,-0.20807 33.722017,-0.20807 31.755233,0 33.069512,0.0081 33.722017,0.20807 1.110294,0.34025 1.985265,0.870697 2.829029,1.715084 1.970919,1.972375 2.419614,4.82195 1.167197,7.412639 -0.483433,1.000003 -1.808031,2.324601 -2.808034,2.808034 -1.565786,0.756947 1.272821,0.700722 -34.962274,0.692514 -28.353589,-0.0064 -32.963469,-0.03004 -33.500211,-0.171648 z"
     id="path2" />
  <path
     style="fill:#85a9cf;fill-opacity:1;stroke-width:0.113161"
     d="M 12.348567,52.215078 C 10.146073,51.622693 8.2717689,49.705017 7.7557743,47.516007 7.0892034,44.688206 8.4256851,41.690274 10.942482,40.367734 12.518211,39.539712 9.4475869,39.606396 46,39.606396 c 36.570122,0 33.477544,-0.06757 35.069517,0.76628 2.50378,1.311445 3.840449,4.319051 3.174709,7.143331 -0.396465,1.681927 -1.659955,3.313973 -3.186708,4.116259 -1.576267,0.828304 1.504365,0.762156 -35.109583,0.753891 -28.405345,-0.0064 -33.075549,-0.03019 -33.599368,-0.171079 z"
     id="path3" />
  <path
     style="fill:#85a9cf;fill-opacity:1;stroke-width:0.113161"
     d="M 12.9396,81.352797 C 9.3746334,80.753124 6.9681689,77.209126 7.7059307,73.645176 8.1774895,71.36719 10.155692,69.346284 12.49979,68.747834 c 0.596141,-0.152195 4.481393,-0.172188 33.461835,-0.172188 23.350693,0 32.959975,0.03573 33.387049,0.124135 2.312959,0.478798 4.466596,2.632436 4.945396,4.945395 0.677811,3.274345 -1.224253,6.461151 -4.515472,7.565433 -0.59887,0.200936 -1.862301,0.209419 -33.439115,0.224553 -18.078767,0.0087 -33.078622,-0.02833 -33.399883,-0.08237 z"
     id="path4" />
  <path
     style="fill:#85a9cf;fill-opacity:1;stroke-width:0.113161"
     d="M 12.652746,23.189176 C 10.62443,22.891652 8.2846247,20.625557 7.8065187,18.495619 7.6437589,17.770532 7.6435521,16.279429 7.8061116,15.559656 8.2681088,13.514045 9.8832428,11.74234 11.99508,10.964609 l 0.735547,-0.270882 H 46 79.269373 l 0.755076,0.260923 c 1.437895,0.496877 2.970185,1.832742 3.657092,3.18829 0.443307,0.874822 0.639912,1.7409 0.636328,2.803122 -0.0064,1.892194 -0.532335,3.151368 -1.879314,4.499251 -1.247829,1.248666 -1.980858,1.608747 -3.565246,1.75133 -1.482037,0.133372 -65.309483,0.126174 -66.220563,-0.0075 z"
     id="path5" />
</svg>
