<?xml version="1.0" encoding="UTF-8" standalone="no"?>
<svg
   viewBox="0 0 92 92"
   id="Menu"
   version="1.1"
   sodipodi:docname="menu.svg"
   inkscape:version="1.3 (0e150ed6c4, 2023-07-21)"
   xmlns:inkscape="http://www.inkscape.org/namespaces/inkscape"
   xmlns:sodipodi="http://sodipodi.sourceforge.net/DTD/sodipodi-0.dtd"
   xmlns="http://www.w3.org/2000/svg"
   xmlns:svg="http://www.w3.org/2000/svg">
  <defs
     id="defs1" />
  <sodipodi:namedview
     id="namedview1"
     pagecolor="#ffffff"
     bordercolor="#000000"
     borderopacity="0.25"
     inkscape:showpageshadow="2"
     inkscape:pageopacity="0.0"
     inkscape:pagecheckerboard="0"
     inkscape:deskcolor="#d1d1d1"
     inkscape:zoom="8.8369565"
     inkscape:cx="46"
     inkscape:cy="46"
     inkscape:window-width="1920"
     inkscape:window-height="1009"
     inkscape:window-x="-8"
     inkscape:window-y="-8"
     inkscape:window-maximized="1"
     inkscape:current-layer="Menu" />
  <path
     d="M78 23.5H14c-3.6 0-6.5-2.9-6.5-6.5s2.9-6.5 6.5-6.5h64c3.6 0 6.5 2.9 6.5 6.5s-2.9 6.5-6.5 6.5zM84.5 46c0-3.6-2.9-6.5-6.5-6.5H14c-3.6 0-6.5 2.9-6.5 6.5s2.9 6.5 6.5 6.5h64c3.6 0 6.5-2.9 6.5-6.5zm0 29c0-3.6-2.9-6.5-6.5-6.5H14c-3.6 0-6.5 2.9-6.5 6.5s2.9 6.5 6.5 6.5h64c3.6 0 6.5-2.9 6.5-6.5z"
     fill="#26282f"
     class="color000000 svgShape"
     id="path1"
     style="fill:#102036;fill-opacity:1" />
</svg>
